<svg width="28" height="24" viewBox="0 0 28 24" fill="none" xmlns="http://www.w3.org/2000/svg">
<path d="M21.5263 18.1111H7.15789L4.42105 1H1" stroke="white" stroke-width="1.5" stroke-linecap="round" stroke-linejoin="round"/>
<path d="M4.81201 3.44446H27L22.8947 14.4445H6.5714" stroke="white" stroke-width="1.5" stroke-linecap="round" stroke-linejoin="round"/>
<path d="M10.5791 23.0001C12.0907 23.0001 13.316 21.9057 13.316 20.5557C13.316 19.2056 12.0907 18.1112 10.5791 18.1112C9.06761 18.1112 7.84229 19.2056 7.84229 20.5557C7.84229 21.9057 9.06761 23.0001 10.5791 23.0001Z" stroke="white" stroke-width="1.5" stroke-linecap="round" stroke-linejoin="round"/>
<path d="M21.5261 23.0001C23.0377 23.0001 24.263 21.9057 24.263 20.5557C24.263 19.2056 23.0377 18.1112 21.5261 18.1112C20.0146 18.1112 18.7893 19.2056 18.7893 20.5557C18.7893 21.9057 20.0146 23.0001 21.5261 23.0001Z" stroke="white" stroke-width="1.5" stroke-linecap="round" stroke-linejoin="round"/>
<path d="M15.934 12.544C15.7847 12.544 15.654 12.4927 15.542 12.39C15.4393 12.278 15.388 12.1473 15.388 11.998V9.702H13.092C12.9427 9.702 12.8167 9.65067 12.714 9.548C12.6113 9.44533 12.56 9.31933 12.56 9.17C12.56 9.01133 12.6113 8.88067 12.714 8.778C12.8167 8.67533 12.9427 8.624 13.092 8.624H15.388V6.328C15.388 6.16933 15.4393 6.03867 15.542 5.936C15.654 5.83333 15.7847 5.782 15.934 5.782C16.0927 5.782 16.2233 5.83333 16.326 5.936C16.4287 6.03867 16.48 6.16933 16.48 6.328V8.624H18.762C18.9207 8.624 19.0513 8.67533 19.154 8.778C19.2567 8.88067 19.308 9.01133 19.308 9.17C19.308 9.31933 19.2567 9.44533 19.154 9.548C19.0513 9.65067 18.9207 9.702 18.762 9.702H16.48V11.998C16.48 12.1473 16.4287 12.278 16.326 12.39C16.2233 12.4927 16.0927 12.544 15.934 12.544Z" fill="white"/>
</svg>
