<svg width="613" height="683" viewBox="0 0 613 683" fill="none" xmlns="http://www.w3.org/2000/svg">
<path fill-rule="evenodd" clip-rule="evenodd" d="M360.753 7.37088C398.435 -4.8324 444.992 -4.05231 475.125 26.4171C506.546 58.1876 492.72 125.526 517.182 165.544C540.712 204.039 599.939 202.765 611.152 248.954C622.088 293.999 572.267 331.24 568.775 378.065C564.563 434.551 601.268 489.503 589.137 544.216C576.581 600.844 547.77 665.98 501.695 680.616C452.613 696.208 410.154 630.736 360.753 616.764C323.537 606.239 283.306 626.237 247.831 608.818C211.669 591.061 191.374 544.849 159.213 517.8C113.688 479.51 45.4615 475.133 18.4407 415.886C-7.18223 359.705 -7.32304 275.046 25.7301 225.121C63.364 168.277 137.626 182.955 192.127 153.542C221.238 137.83 246.047 114.721 272.047 92.1838C303.044 65.3145 324.113 19.2367 360.753 7.37088Z" fill="white"/>
</svg>
