<svg width="48" height="52" viewBox="0 0 48 52" fill="none" xmlns="http://www.w3.org/2000/svg">
<path d="M45.9802 44.4101L44.1061 21.5381C43.8633 18.5745 41.4276 16.295 38.5036 16.295H35.2438H12.7562H9.49625C6.57236 16.295 4.13659 18.5745 3.89378 21.5381L2.01981 44.4101C1.74667 47.7437 4.33325 50.6029 7.62228 50.6029H40.3777C43.6668 50.6029 46.2534 47.7437 45.9802 44.4101Z" stroke="#1c1e5a" stroke-width="2.40938" stroke-linecap="round" stroke-linejoin="round"/>
<path d="M35.2437 27.731V16.295V13.436C35.2437 10.403 34.0592 7.49419 31.9504 5.34952C29.8419 3.20487 26.9821 2 24 2C21.0178 2 18.158 3.20487 16.0494 5.34952C13.9408 7.49419 12.7562 10.403 12.7562 13.436V16.295V27.731" stroke="#1c1e5a" stroke-width="2.40938" stroke-linecap="round" stroke-linejoin="round"/>
</svg>
