<svg width="27" height="27" viewBox="0 0 27 27" fill="none" xmlns="http://www.w3.org/2000/svg">
<path d="M25.9993 23.4812V19.7177C26.0145 19.1024 25.8027 18.503 25.404 18.0334C24.2798 16.7092 20.4243 15.8623 18.8959 16.1875C17.7047 16.4411 16.8711 17.6373 16.0562 18.4506C12.9092 16.6646 10.3036 14.0642 8.51418 10.9234C9.32904 10.1101 10.5276 9.27829 10.7817 8.08929C11.1072 6.56636 10.2613 2.7354 8.94629 1.60672C8.48374 1.20972 7.89233 0.994122 7.2823 1.00012H3.51126C2.07441 1.00147 0.878993 2.29021 1.00981 3.73499C0.999993 16.1875 10.7223 26.0001 23.259 25.9902C24.7115 26.1213 26.0051 24.9199 25.9993 23.4812Z" stroke="white" stroke-width="1.5" stroke-linecap="round" stroke-linejoin="round"/>
</svg>
