<svg width="77" height="37" viewBox="0 0 77 37" fill="none" xmlns="http://www.w3.org/2000/svg">
<path d="M8.63916 31.9592H4.47252" stroke="#EA635E" stroke-width="0.792249" stroke-linecap="round" stroke-linejoin="round"/>
<path d="M10.7222 30.3747H2.7361C1.77728 30.3747 0.999997 29.7835 0.999997 29.0542C0.999997 28.325 1.77728 27.7338 2.7361 27.7338" stroke="#EA635E" stroke-width="0.792249" stroke-linecap="round" stroke-linejoin="round"/>
<path d="M11.417 33.5436H2.38926C1.62218 33.5436 1.00038 34.0166 1.00038 34.6C1.00038 35.1834 1.62218 35.6563 2.38926 35.6563" stroke="#EA635E" stroke-width="0.792249" stroke-linecap="round" stroke-linejoin="round"/>
<path d="M27.2021 29.4612C27.2021 31.3952 25.6577 32.952 23.7662 32.952C21.8747 32.952 20.3303 31.3952 20.3303 29.4612C20.3303 27.5272 21.8747 25.9704 23.7662 25.9704C25.6577 25.9704 27.2021 27.5272 27.2021 29.4612Z" stroke="#EA635E" stroke-width="0.92429"/>
<path d="M68.5209 29.4612C68.5209 31.3952 66.9766 32.952 65.0851 32.952C63.1935 32.952 61.6492 31.3952 61.6492 29.4612C61.6492 27.5272 63.1935 25.9704 65.0851 25.9704C66.9766 25.9704 68.5209 27.5272 68.5209 29.4612Z" stroke="#EA635E" stroke-width="0.92429"/>
<path d="M55.73 14.8353V2.58118C55.73 1.70792 55.0221 1 54.1488 1H15.6022C14.7289 1 14.021 1.70792 14.021 2.58118V28.6706C14.021 29.1072 14.375 29.4612 14.8116 29.4612H19.0884M55.73 14.8353H70.9324L75.9998 22.7412V29.4612H69.763M55.73 14.8353V29.4612M28.4437 29.4612H55.73M60.4077 29.4612H55.73" stroke="white" stroke-width="0.92429" stroke-dasharray="1.58 1.58"/>
<path d="M33.6392 9.51208H36.0697" stroke="white" stroke-width="0.792249" stroke-linecap="round" stroke-linejoin="round"/>
<path d="M34.8545 13.2092V15.674L36.0698 16.9064" stroke="white" stroke-width="0.792249" stroke-linecap="round" stroke-linejoin="round"/>
<path d="M34.8547 20.6035C37.5395 20.6035 39.7158 18.3965 39.7158 15.674C39.7158 12.9515 37.5395 10.7444 34.8547 10.7444C32.17 10.7444 29.9937 12.9515 29.9937 15.674C29.9937 18.3965 32.17 20.6035 34.8547 20.6035Z" stroke="white" stroke-width="0.792249" stroke-linecap="round" stroke-linejoin="round"/>
</svg>
