<svg width="146" height="68" viewBox="0 0 146 68" fill="none" xmlns="http://www.w3.org/2000/svg">
<path d="M15.6667 59.6163H7.66666" stroke="#EA635E" stroke-width="1.5" stroke-linecap="round" stroke-linejoin="round"/>
<path d="M19.6667 56.6163H4.33332C2.49239 56.6163 0.999991 55.497 0.999991 54.1163C0.999991 52.7356 2.49239 51.6163 4.33332 51.6163" stroke="#EA635E" stroke-width="1.5" stroke-linecap="round" stroke-linejoin="round"/>
<path d="M21 62.6163H3.66667C2.19387 62.6163 0.999999 63.5117 0.999999 64.6163C0.999999 65.7209 2.19387 66.6163 3.66667 66.6163" stroke="#EA635E" stroke-width="1.5" stroke-linecap="round" stroke-linejoin="round"/>
<circle cx="44.7107" cy="54.8868" r="6.60928" stroke="#EA635E" stroke-width="1.75"/>
<circle cx="124.044" cy="54.8868" r="6.60928" stroke="#EA635E" stroke-width="1.75"/>
<path d="M106.082 27.195V3.99371C106.082 2.34033 104.741 1 103.088 1H28.9937C27.3403 1 26 2.34033 26 3.99371V53.3899C26 54.2166 26.6702 54.8868 27.4969 54.8868H35.7296M106.082 27.195H135.27L145 42.1635V54.8868H133.025M106.082 27.195V54.8868M53.6918 54.8868H106.082M115.063 54.8868H106.082" stroke="#1283FE" stroke-width="1.75" stroke-dasharray="2.99 2.99"/>
<path d="M63.6667 17.1163H68.3333" stroke="#1283FE" stroke-width="1.5" stroke-linecap="round" stroke-linejoin="round"/>
<path d="M66 24.1163V28.783L68.3333 31.1163" stroke="#1283FE" stroke-width="1.5" stroke-linecap="round" stroke-linejoin="round"/>
<path d="M66 38.1163C71.1547 38.1163 75.3333 33.9377 75.3333 28.783C75.3333 23.6283 71.1547 19.4496 66 19.4496C60.8453 19.4496 56.6667 23.6283 56.6667 28.783C56.6667 33.9377 60.8453 38.1163 66 38.1163Z" stroke="#1283FE" stroke-width="1.5" stroke-linecap="round" stroke-linejoin="round"/>
</svg>
