<svg width="247" height="65" viewBox="0 0 247 65" fill="none" xmlns="http://www.w3.org/2000/svg">
<path d="M6.96938 7.24605C7.35824 3.13821 10.8076 0 14.9338 0H230.805C236.355 0 240.253 5.46702 238.444 10.7139V10.7139C236.805 15.4659 236.602 20.5952 237.861 25.4616L241.538 39.6814C241.925 41.1761 242.841 42.4797 244.116 43.3499V43.3499C246.425 44.9254 247.438 47.8217 246.614 50.4928L243.545 60.439C242.709 63.1504 240.203 65 237.365 65H11.8561C9.22585 65 6.76367 63.7071 5.27039 61.5419L2.56646 57.6213C-0.100091 53.7548 0.283485 48.5537 3.48839 45.1203L10.5601 37.5443C13.4201 34.4804 12.6258 29.5423 8.94927 27.5297V27.5297C6.69921 26.298 5.39801 23.8454 5.63975 21.2917L6.96938 7.24605Z" fill="#FEDB24"/>
</svg>
