<svg width="356" height="65" viewBox="0 0 356 65" fill="none" xmlns="http://www.w3.org/2000/svg">
<path d="M8.05143 6.9121C8.5951 2.95136 11.9792 0 15.9771 0H338.142C343.131 0 346.375 5.24979 344.144 9.71164V9.71164C341.502 14.9969 341.179 21.1438 343.254 26.6767L348.034 39.4231C348.653 41.0754 349.894 42.4205 351.49 43.1719V43.1719C354.828 44.7425 356.294 48.6957 354.788 52.0628L350.468 61.7201C349.575 63.7155 347.593 65 345.407 65H12.3139C10.1922 65 8.15736 64.1572 6.65707 62.6569L3.21257 59.2124C-1.11106 54.8889 -0.576601 47.7319 4.34123 44.0984L11.8662 38.5387C15.9757 35.5025 15.0916 29.1211 10.3115 27.3164V27.3164C7.49646 26.2537 5.7902 23.3858 6.19938 20.4048L8.05143 6.9121Z" fill="#FEDB24"/>
</svg>
