<svg width="85" height="142" viewBox="0 0 85 142" fill="none" xmlns="http://www.w3.org/2000/svg">
<path d="M74.4006 140.665L22.3558 89.3882L38.7833 63.7632V63.7632C25.2661 51.1606 30.8878 28.6089 48.7389 23.8257L51.3452 23.1274C71.9871 17.5964 89.6171 38.8139 80.3993 58.0938L78.9495 61.1263C77.2057 64.7737 74.7713 68.0484 71.7811 70.7692L70.0282 72.3642C65.6777 76.3228 60.443 79.1827 54.7615 80.7051L52.512 81.3078C15.5633 91.2082 -13.0513 48.8171 9.94806 18.2516V18.2516C17.6609 8.00145 29.7991 2.04338 42.6258 2.21156L49.767 2.30519C58.0446 2.41371 65.9107 5.93226 71.509 12.0305V12.0305" stroke="#3c41e1" stroke-width="3" stroke-dasharray="6 6"/>
</svg>
