<svg width="234" height="101" viewBox="0 0 234 101" fill="none" xmlns="http://www.w3.org/2000/svg">
<path d="M124.808 1H113.592L108.785 19.4275H115.194L111.989 35.8075L129.616 13.285H120.963L124.808 1Z" stroke="#EA635E" stroke-width="1.73592" stroke-linecap="round" stroke-linejoin="round" stroke-dasharray="2.44 2.44"/>
<path d="M108.77 95.1822C109.334 94.8813 109.547 94.1802 109.246 93.6164L104.342 84.4275C104.041 83.8636 103.34 83.6505 102.776 83.9514C102.212 84.2523 101.999 84.9534 102.3 85.5173L106.659 93.6851L98.4913 98.0442C97.9274 98.3451 97.7142 99.0462 98.0152 99.61C98.3161 100.174 99.0171 100.387 99.581 100.086L108.77 95.1822ZM104.485 28.7799L104.141 27.6748L104.485 28.7799ZM104.683 93.0844L104.347 94.1916L104.683 93.0844ZM107.882 26.5124L106.947 26.803L107.633 29.0132L108.568 28.7226L107.882 26.5124ZM105.076 27.3842L104.141 27.6748L104.828 29.8851L105.763 29.5945L105.076 27.3842ZM104.141 27.6748C103.664 27.8233 103.193 27.9795 102.729 28.1434L103.5 30.3259C103.936 30.1719 104.379 30.0249 104.828 29.8851L104.141 27.6748ZM99.9885 29.2331C99.0755 29.6387 98.1928 30.0756 97.3405 30.5417L98.451 32.5724C99.2473 32.137 100.073 31.7283 100.928 31.3483L99.9885 29.2331ZM94.8082 32.0696C93.9765 32.6214 93.1789 33.2032 92.4153 33.8124L93.8589 35.6216C94.5696 35.0545 95.3126 34.5126 96.0879 33.9982L94.8082 32.0696ZM90.1844 35.7608C89.4646 36.4483 88.7818 37.1626 88.1359 37.9008L89.8778 39.4249C90.4786 38.7383 91.1136 38.074 91.7831 37.4345L90.1844 35.7608ZM86.2869 40.2151C85.7028 41.0169 85.1576 41.8408 84.6511 42.6837L86.635 43.8759C87.1067 43.0908 87.6143 42.3239 88.1578 41.5778L86.2869 40.2151ZM83.2387 45.2851C82.805 46.1739 82.4111 47.079 82.0567 47.9975L84.2161 48.8306C84.5469 47.9732 84.9145 47.1287 85.3188 46.3L83.2387 45.2851ZM81.1096 50.7995C80.8333 51.7467 80.5969 52.7044 80.4004 53.6694L82.6684 54.1312C82.8522 53.2285 83.0733 52.3331 83.3316 51.4478L81.1096 50.7995ZM79.9301 56.5868C79.8133 57.5651 79.7364 58.5479 79.6995 59.532L82.0124 59.6187C82.047 58.6972 82.119 57.7771 82.2284 56.8612L79.9301 56.5868ZM79.7086 62.486C79.7516 63.4698 79.8345 64.4521 79.9574 65.4297L82.2539 65.141C82.1389 64.2259 82.0612 63.3062 82.021 62.3849L79.7086 62.486ZM80.4456 68.3441C80.6481 69.3079 80.8904 70.2641 81.1726 71.2095L83.3905 70.5475C83.1268 69.6639 82.9002 68.7699 82.7108 67.8683L80.4456 68.3441ZM82.137 74.0057C82.497 74.922 82.8965 75.8247 83.3356 76.7107L85.4095 75.683C85.0001 74.8568 84.6273 74.0146 84.2912 73.1593L82.137 74.0057ZM84.7641 79.3034C85.2758 80.1431 85.8261 80.9636 86.4151 81.7618L88.2775 80.3876C87.7295 79.6448 87.2172 78.8811 86.7406 78.099L84.7641 79.3034ZM88.2783 84.0646C88.9288 84.7989 89.616 85.5089 90.3401 86.192L91.9284 84.5084C91.255 83.8731 90.6158 83.2127 90.0109 82.5298L88.2783 84.0646ZM92.5829 88.1265C93.3503 88.7311 94.1515 89.3079 94.9865 89.8546L96.2543 87.9181C95.4759 87.4085 94.7296 86.8712 94.0153 86.3084L92.5829 88.1265ZM97.5282 91.3668C98.3834 91.8277 99.2688 92.2591 100.184 92.659L101.111 90.5381C100.253 90.1634 99.4251 89.7598 98.6262 89.3292L97.5282 91.3668ZM102.931 93.7318C103.396 93.8928 103.868 94.0461 104.347 94.1916L105.02 91.9772C104.569 91.8402 104.126 91.6959 103.689 91.5446L102.931 93.7318ZM104.347 94.1916L105.232 94.4608L105.905 92.2464L105.02 91.9772L104.347 94.1916ZM107.003 94.9993L107.888 95.2685L108.562 93.054L107.676 92.7848L107.003 94.9993Z" fill="#3C41E1"/>
<path d="M125.23 26.5965C124.666 26.8974 124.453 27.5985 124.754 28.1624L129.658 37.3512C129.959 37.9151 130.66 38.1283 131.224 37.8274C131.788 37.5264 132.001 36.8254 131.7 36.2615L127.341 28.0936L135.509 23.7346C136.073 23.4337 136.286 22.7326 135.985 22.1687C135.684 21.6048 134.983 21.3917 134.419 21.6926L125.23 26.5965ZM129.515 92.9988L129.172 91.8937L129.515 92.9988ZM129.317 28.6943L128.98 29.8016L129.317 28.6943ZM126.118 95.2664L127.053 94.9758L126.367 92.7655L125.431 93.0561L126.118 95.2664ZM128.924 94.3945L129.859 94.1039L129.172 91.8937L128.237 92.1843L128.924 94.3945ZM129.859 94.1039C130.336 93.9555 130.807 93.7992 131.271 93.6353L130.5 91.4529C130.064 91.6069 129.621 91.7539 129.172 91.8937L129.859 94.1039ZM134.011 92.5457C134.924 92.1401 135.807 91.7032 136.659 91.2371L135.549 89.2063C134.753 89.6418 133.927 90.0505 133.072 90.4305L134.011 92.5457ZM139.192 89.7092C140.023 89.1573 140.821 88.5756 141.585 87.9663L140.141 86.1571C139.43 86.7242 138.687 87.2661 137.912 87.7805L139.192 89.7092ZM143.816 86.018C144.535 85.3304 145.218 84.6162 145.864 83.8779L144.122 82.3539C143.521 83.0405 142.886 83.7048 142.217 84.3443L143.816 86.018ZM147.713 81.5636C148.297 80.7618 148.842 79.938 149.349 79.0951L147.365 77.9029C146.893 78.6879 146.386 79.4548 145.842 80.2009L147.713 81.5636ZM150.761 76.4936C151.195 75.6049 151.589 74.6997 151.943 73.7812L149.784 72.9481C149.453 73.8056 149.085 74.65 148.681 75.4787L150.761 76.4936ZM152.89 70.9792C153.167 70.032 153.403 69.0744 153.6 68.1093L151.332 67.6475C151.148 68.5502 150.927 69.4457 150.668 70.3309L152.89 70.9792ZM154.07 65.192C154.187 64.2137 154.264 63.2309 154.3 62.2468L151.988 62.16C151.953 63.0816 151.881 64.0017 151.772 64.9175L154.07 65.192ZM154.291 59.2928C154.248 58.3089 154.165 57.3266 154.043 56.349L151.746 56.6377C151.861 57.5528 151.939 58.4725 151.979 59.3938L154.291 59.2928ZM153.554 53.4347C153.352 52.4709 153.11 51.5147 152.827 50.5692L150.609 51.2312C150.873 52.1148 151.1 53.0089 151.289 53.9105L153.554 53.4347ZM151.863 47.7731C151.503 46.8568 151.103 45.9541 150.664 45.068L148.59 46.0958C149 46.9219 149.373 47.7641 149.709 48.6195L151.863 47.7731ZM149.236 42.4754C148.724 41.6356 148.174 40.8152 147.585 40.0169L145.722 41.3912C146.27 42.1339 146.783 42.8977 147.259 43.6798L149.236 42.4754ZM145.722 37.7141C145.071 36.9799 144.384 36.2698 143.66 35.5868L142.072 37.2703C142.745 37.9057 143.384 38.566 143.989 39.2489L145.722 37.7141ZM141.417 33.6522C140.65 33.0477 139.848 32.4709 139.013 31.9242L137.746 33.8607C138.524 34.3703 139.27 34.9076 139.985 35.4703L141.417 33.6522ZM136.472 30.4119C135.617 29.9511 134.731 29.5197 133.816 29.1197L132.889 31.2407C133.747 31.6154 134.575 32.019 135.374 32.4495L136.472 30.4119ZM131.069 28.047C130.604 27.886 130.132 27.7326 129.653 27.5871L128.98 29.8016C129.431 29.9386 129.874 30.0828 130.311 30.2342L131.069 28.047ZM129.653 27.5871L128.768 27.3179L128.095 29.5324L128.98 29.8016L129.653 27.5871ZM126.997 26.7795L126.112 26.5103L125.438 28.7247L126.324 28.9939L126.997 26.7795Z" fill="#EA635E"/>
<path d="M116.886 78.5379C126.473 78.5379 134.245 70.766 134.245 61.1787C134.245 51.5915 126.473 43.8195 116.886 43.8195C107.298 43.8195 99.5263 51.5915 99.5263 61.1787C99.5263 70.766 107.298 78.5379 116.886 78.5379Z" stroke="#3C41E1" stroke-width="2.19375"/>
<path d="M124.601 61.1786C124.601 49.6058 116.886 43.8194 116.886 43.8194C116.886 43.8194 109.17 49.6058 109.17 61.1786C109.17 72.7515 116.886 78.5379 116.886 78.5379C116.886 78.5379 124.601 72.7515 124.601 61.1786Z" stroke="#3C41E1" stroke-width="2.19375" stroke-linejoin="round"/>
<path d="M134.245 61.1786H99.5263" stroke="#3C41E1" stroke-width="2.19375"/>
</svg>
