<svg width="203" height="87" viewBox="0 0 203 87" fill="none" xmlns="http://www.w3.org/2000/svg">
<path d="M107.846 1H98.1538L94 16.9231H99.5385L96.7692 31.0769L112 11.6154H104.523L107.846 1Z" stroke="#EA635E" stroke-width="1.5" stroke-linecap="round" stroke-linejoin="round" stroke-dasharray="2.11 2.11"/>
<path d="M93.9873 82.3822C94.4746 82.1222 94.6587 81.5164 94.3987 81.0292L90.1613 73.0891C89.9013 72.6019 89.2955 72.4177 88.8082 72.6777C88.321 72.9378 88.1368 73.5435 88.3968 74.0308L92.1634 81.0886L85.1056 84.8552C84.6184 85.1152 84.4342 85.721 84.6942 86.2083C84.9543 86.6955 85.56 86.8797 86.0473 86.6197L93.9873 82.3822ZM90.2847 25.0045L90.5815 25.9594L90.2847 25.0045ZM90.4563 80.5695L90.1654 81.5263L90.4563 80.5695ZM93.2197 23.0451L92.4118 23.2962L93.0054 25.2061L93.8133 24.9549L93.2197 23.0451ZM90.7959 23.7984L89.9879 24.0495L90.5815 25.9594L91.3895 25.7083L90.7959 23.7984ZM89.9879 24.0495C89.5752 24.1778 89.1684 24.3128 88.7674 24.4544L89.4334 26.3403C89.8102 26.2072 90.1929 26.0802 90.5815 25.9594L89.9879 24.0495ZM86.3994 25.396C85.6105 25.7465 84.8478 26.124 84.1113 26.5268L85.0709 28.2815C85.7589 27.9053 86.4724 27.5521 87.2114 27.2238L86.3994 25.396ZM81.9231 27.847C81.2045 28.3238 80.5153 28.8265 79.8555 29.353L81.1029 30.9163C81.717 30.4263 82.359 29.958 83.0289 29.5135L81.9231 27.847ZM77.9278 31.0365C77.3058 31.6306 76.7158 32.2478 76.1576 32.8857L77.6628 34.2027C78.1819 33.6094 78.7307 33.0354 79.3092 32.4828L77.9278 31.0365ZM74.5599 34.8855C74.0553 35.5784 73.5841 36.2903 73.1464 37.0186L74.8607 38.0487C75.2683 37.3704 75.7069 36.7077 76.1765 36.063L74.5599 34.8855ZM71.926 39.2665C71.5513 40.0344 71.2109 40.8166 70.9047 41.6102L72.7706 42.3301C73.0565 41.5892 73.3741 40.8595 73.7234 40.1435L71.926 39.2665ZM70.0863 44.0315C69.8475 44.8499 69.6432 45.6774 69.4734 46.5113L71.4332 46.9104C71.5921 46.1303 71.7831 45.3566 72.0063 44.5916L70.0863 44.0315ZM69.0671 49.0322C68.9661 49.8775 68.8997 50.7267 68.8678 51.5771L70.8664 51.6521C70.8963 50.8558 70.9585 50.0607 71.053 49.2693L69.0671 49.0322ZM68.8757 54.1296C68.9129 54.9798 68.9845 55.8286 69.0907 56.6733L71.0751 56.4239C70.9757 55.6331 70.9086 54.8384 70.8738 54.0423L68.8757 54.1296ZM69.5126 59.1916C69.6875 60.0244 69.8969 60.8506 70.1408 61.6676L72.0572 61.0956C71.8293 60.332 71.6335 59.5595 71.4699 58.7804L69.5126 59.1916ZM70.9741 64.0837C71.2851 64.8755 71.6304 65.6555 72.0098 66.4211L73.8018 65.5331C73.4481 64.8192 73.1259 64.0915 72.8355 63.3523L70.9741 64.0837ZM73.2441 68.6614C73.6863 69.3871 74.1618 70.096 74.6708 70.7858L76.2801 69.5983C75.8065 68.9565 75.3638 68.2965 74.952 67.6207L73.2441 68.6614ZM76.2808 72.7756C76.8428 73.4101 77.4367 74.0236 78.0623 74.6139L79.4348 73.1591C78.8529 72.6101 78.3006 72.0395 77.7778 71.4494L76.2808 72.7756ZM80.0004 76.2855C80.6634 76.8079 81.3557 77.3063 82.0773 77.7787L83.1727 76.1053C82.5001 75.665 81.8552 75.2007 81.2381 74.7145L80.0004 76.2855ZM84.2735 79.0854C85.0125 79.4836 85.7776 79.8564 86.5686 80.202L87.3693 78.3693C86.6283 78.0455 85.9126 77.6967 85.2223 77.3247L84.2735 79.0854ZM88.9424 81.1289C89.3442 81.268 89.7519 81.4005 90.1654 81.5263L90.7472 79.6128C90.3578 79.4944 89.9744 79.3697 89.5967 79.239L88.9424 81.1289ZM90.1654 81.5263L90.9304 81.7589L91.5122 79.8454L90.7472 79.6128L90.1654 81.5263ZM92.4605 82.2241L93.2256 82.4568L93.8074 80.5432L93.0423 80.3106L92.4605 82.2241Z" fill="#3C41E1"/>
<path d="M108.21 23.1178C107.723 23.3778 107.539 23.9836 107.799 24.4708L112.036 32.4109C112.297 32.8981 112.902 33.0823 113.39 32.8223C113.877 32.5622 114.061 31.9565 113.801 31.4692L110.034 24.4114L117.092 20.6448C117.579 20.3848 117.764 19.779 117.504 19.2917C117.244 18.8045 116.638 18.6203 116.151 18.8803L108.21 23.1178ZM111.913 80.4955L112.21 81.4505L111.913 80.4955ZM111.742 24.9305L112.032 23.9737L111.742 24.9305ZM108.978 82.4549L109.786 82.2038L109.192 80.2939L108.384 80.5451L108.978 82.4549ZM111.402 81.7016L112.21 81.4505L111.616 79.5406L110.808 79.7917L111.402 81.7016ZM112.21 81.4505C112.623 81.3222 113.029 81.1872 113.43 81.0456L112.764 79.1597C112.388 79.2928 112.005 79.4198 111.616 79.5406L112.21 81.4505ZM115.798 80.104C116.587 79.7535 117.35 79.376 118.087 78.9732L117.127 77.2185C116.439 77.5947 115.725 77.9479 114.986 78.2762L115.798 80.104ZM120.275 77.653C120.993 77.1762 121.683 76.6735 122.342 76.147L121.095 74.5837C120.481 75.0737 119.839 75.542 119.169 75.9865L120.275 77.653ZM124.27 74.4635C124.892 73.8694 125.482 73.2522 126.04 72.6143L124.535 71.2973C124.016 71.8906 123.467 72.4646 122.889 73.0172L124.27 74.4635ZM127.638 70.6145C128.143 69.9216 128.614 69.2097 129.051 68.4814L127.337 67.4513C126.929 68.1296 126.491 68.7923 126.021 69.437L127.638 70.6145ZM130.272 66.2335C130.647 65.4656 130.987 64.6834 131.293 63.8898L129.427 63.1699C129.141 63.9108 128.824 64.6405 128.474 65.3565L130.272 66.2335ZM132.111 61.4685C132.35 60.6501 132.555 59.8226 132.724 58.9887L130.765 58.5896C130.606 59.3697 130.415 60.1434 130.192 60.9083L132.111 61.4685ZM133.131 56.4678C133.232 55.6225 133.298 54.7733 133.33 53.9229L131.331 53.8479C131.301 54.6442 131.239 55.4393 131.145 56.2307L133.131 56.4678ZM133.322 51.3704C133.285 50.5202 133.213 49.6714 133.107 48.8267L131.123 49.0761C131.222 49.8669 131.289 50.6616 131.324 51.4577L133.322 51.3704ZM132.685 46.3084C132.51 45.4756 132.301 44.6494 132.057 43.8324L130.141 44.4044C130.368 45.168 130.564 45.9405 130.728 46.7196L132.685 46.3084ZM131.224 41.4163C130.913 40.6245 130.567 39.8445 130.188 39.0789L128.396 39.9669C128.75 40.6808 129.072 41.4085 129.362 42.1477L131.224 41.4163ZM128.954 36.8385C128.511 36.1129 128.036 35.404 127.527 34.7142L125.918 35.9017C126.391 36.5435 126.834 37.2035 127.246 37.8793L128.954 36.8385ZM125.917 32.7244C125.355 32.0899 124.761 31.4764 124.135 30.8861L122.763 32.3409C123.345 32.8899 123.897 33.4605 124.42 34.0506L125.917 32.7244ZM122.197 29.2145C121.534 28.6921 120.842 28.1937 120.12 27.7213L119.025 29.3947C119.698 29.835 120.343 30.2993 120.96 30.7855L122.197 29.2145ZM117.924 26.4146C117.185 26.0164 116.42 25.6436 115.629 25.298L114.828 27.1307C115.569 27.4545 116.285 27.8033 116.976 28.1753L117.924 26.4146ZM113.255 24.3711C112.854 24.232 112.446 24.0995 112.032 23.9737L111.451 25.8872C111.84 26.0056 112.223 26.1303 112.601 26.261L113.255 24.3711ZM112.032 23.9737L111.267 23.7411L110.686 25.6546L111.451 25.8872L112.032 23.9737ZM109.737 23.2759L108.972 23.0432L108.39 24.9568L109.155 25.1894L109.737 23.2759Z" fill="#EA635E"/>
<path d="M101 68C109.284 68 116 61.2843 116 53C116 44.7157 109.284 38 101 38C92.7157 38 86 44.7157 86 53C86 61.2843 92.7157 68 101 68Z" stroke="#3C41E1" stroke-width="1.8956"/>
<path d="M107.667 52.9999C107.667 42.9999 101 37.9999 101 37.9999C101 37.9999 94.3333 42.9999 94.3333 52.9999C94.3333 62.9999 101 67.9999 101 67.9999C101 67.9999 107.667 62.9999 107.667 52.9999Z" stroke="#3C41E1" stroke-width="1.8956" stroke-linejoin="round"/>
<path d="M116 52.9999H86" stroke="#3C41E1" stroke-width="1.8956"/>
</svg>
