<svg width="234" height="101" viewBox="0 0 234 101" fill="none" xmlns="http://www.w3.org/2000/svg">
<path d="M124.808 1H113.592L108.785 19.4275H115.194L111.989 35.8075L129.616 13.285H120.963L124.808 1Z" stroke="#EA635E" stroke-width="1.73592" stroke-linecap="round" stroke-linejoin="round" stroke-dasharray="3.5 3.5"/>
<path d="M108.77 95.1822C109.334 94.8813 109.547 94.1802 109.246 93.6164L104.342 84.4275C104.041 83.8636 103.34 83.6505 102.776 83.9514C102.212 84.2523 101.999 84.9534 102.3 85.5173L106.659 93.6851L98.4913 98.0442C97.9274 98.3451 97.7142 99.0462 98.0152 99.61C98.3161 100.174 99.0171 100.387 99.581 100.086L108.77 95.1822ZM104.683 93.0844L105.02 91.9772L104.683 93.0844ZM106.946 26.803C106.336 26.9927 105.995 27.6412 106.185 28.2516C106.375 28.8619 107.023 29.2029 107.633 29.0132L106.946 26.803ZM105.763 29.5945C106.374 29.4048 106.715 28.7562 106.525 28.1458C106.335 27.5355 105.687 27.1945 105.076 27.3842L105.763 29.5945ZM102.038 28.3949C101.44 28.6192 101.136 29.2863 101.361 29.8848C101.585 30.4832 102.252 30.7865 102.851 30.5621L102.038 28.3949ZM99.0645 32.2453C99.6316 31.9505 99.8523 31.2518 99.5575 30.6847C99.2627 30.1176 98.564 29.8968 97.9969 30.1916L99.0645 32.2453ZM94.1964 32.4852C93.6716 32.85 93.5419 33.5712 93.9068 34.096C94.2717 34.6208 94.9928 34.7504 95.5176 34.3856L94.1964 32.4852ZM92.288 36.963C92.7599 36.532 92.7931 35.8 92.3621 35.328C91.9311 34.8561 91.1991 34.8229 90.7271 35.2539L92.288 36.963ZM87.6553 38.4626C87.2453 38.9529 87.3104 39.6827 87.8007 40.0927C88.291 40.5028 89.0209 40.4377 89.4309 39.9474L87.6553 38.4626ZM86.9964 43.2891C87.3376 42.7486 87.176 42.0339 86.6356 41.6927C86.0951 41.3515 85.3804 41.5131 85.0392 42.0536L86.9964 43.2891ZM82.9213 45.9537C82.6535 46.534 82.9069 47.2216 83.4872 47.4894C84.0675 47.7572 84.7551 47.5038 85.0229 46.9235L82.9213 45.9537ZM83.532 50.7868C83.7238 50.1771 83.3851 49.5274 82.7754 49.3355C82.1657 49.1437 81.5159 49.4824 81.3241 50.0921L83.532 50.7868ZM80.2603 54.3952C80.1457 55.024 80.5625 55.6266 81.1913 55.7412C81.8201 55.8558 82.4228 55.439 82.5374 54.8102L80.2603 54.3952ZM82.0454 58.9278C82.0823 58.2897 81.595 57.7425 80.9569 57.7056C80.3188 57.6687 79.7716 58.156 79.7347 58.7941L82.0454 58.9278ZM79.7484 63.2236C79.7892 63.8615 80.3394 64.3454 80.9773 64.3046C81.6151 64.2637 82.099 63.7135 82.0582 63.0757L79.7484 63.2236ZM82.5756 67.1901C82.4571 66.5621 81.8519 66.149 81.2238 66.2674C80.5958 66.3859 80.1827 66.9911 80.3012 67.6192L82.5756 67.1901ZM81.3915 71.9156C81.5871 72.5241 82.2389 72.8588 82.8474 72.6632C83.4559 72.4676 83.7906 71.8158 83.595 71.2073L81.3915 71.9156ZM85.1098 75.0613C84.8384 74.4827 84.1493 74.2336 83.5706 74.5049C82.9919 74.7763 82.7428 75.4654 83.0142 76.0441L85.1098 75.0613ZM85.1561 79.9311C85.5006 80.4694 86.2163 80.6266 86.7547 80.2821C87.293 79.9376 87.4502 79.2219 87.1057 78.6835L85.1561 79.9311ZM89.5607 82.0101C89.1477 81.5223 88.4174 81.4618 87.9297 81.8748C87.4419 82.2879 87.3813 83.0181 87.7944 83.5059L89.5607 82.0101ZM90.8859 86.6955C91.3605 87.1236 92.0923 87.0859 92.5204 86.6113C92.9484 86.1367 92.9107 85.4049 92.4361 84.9768L90.8859 86.6955ZM95.6817 87.5343C95.1546 87.1726 94.4343 87.3067 94.0727 87.8338C93.711 88.3608 93.8451 89.0812 94.3722 89.4428L95.6817 87.5343ZM98.1868 91.7128C98.7557 92.0041 99.453 91.779 99.7443 91.2101C100.036 90.6412 99.8106 89.9439 99.2416 89.6526L98.1868 91.7128ZM103.038 91.3124C102.438 91.0917 101.773 91.3991 101.552 91.9989C101.332 92.5988 101.639 93.2639 102.239 93.4846L103.038 91.3124ZM105.232 94.4608C105.844 94.6468 106.49 94.3018 106.676 93.6903C106.862 93.0788 106.517 92.4323 105.905 92.2464L105.232 94.4608ZM107.676 92.7848C107.065 92.5989 106.418 92.9439 106.232 93.5554C106.046 94.1669 106.391 94.8133 107.003 94.9993L107.676 92.7848ZM107.882 26.5124L106.946 26.803L107.633 29.0132L108.568 28.7226L107.882 26.5124ZM105.076 27.3842L104.141 27.6748L104.828 29.8851L105.763 29.5945L105.076 27.3842ZM104.141 27.6748C103.425 27.8975 102.724 28.1378 102.038 28.3949L102.851 30.5621C103.495 30.3207 104.154 30.0947 104.828 29.8851L104.141 27.6748ZM97.9969 30.1916C96.6574 30.8879 95.3905 31.655 94.1964 32.4852L95.5176 34.3856C96.6302 33.612 97.8124 32.8962 99.0645 32.2453L97.9969 30.1916ZM90.7271 35.2539C89.6201 36.2649 88.5962 37.3376 87.6553 38.4626L89.4309 39.9474C90.3059 38.901 91.2582 37.9034 92.288 36.963L90.7271 35.2539ZM85.0392 42.0536C84.2448 43.3119 83.5389 44.6154 82.9213 45.9537L85.0229 46.9235C85.5989 45.6753 86.2568 44.4608 86.9964 43.2891L85.0392 42.0536ZM81.3241 50.0921C80.8797 51.5047 80.5251 52.9425 80.2603 54.3952L82.5374 54.8102C82.7851 53.451 83.1167 52.1066 83.532 50.7868L81.3241 50.0921ZM79.7347 58.7941C79.6493 60.2691 79.6539 61.7491 79.7484 63.2236L82.0582 63.0757C81.9697 61.6949 81.9655 60.309 82.0454 58.9278L79.7347 58.7941ZM80.3012 67.6192C80.5749 69.0702 80.9383 70.5058 81.3915 71.9156L83.595 71.2073C83.1716 69.8901 82.8317 68.5478 82.5756 67.1901L80.3012 67.6192ZM83.0142 76.0441C83.64 77.3786 84.354 78.6776 85.1561 79.9311L87.1057 78.6835C86.3588 77.5164 85.6935 76.3059 85.1098 75.0613L83.0142 76.0441ZM87.7944 83.5059C88.7421 84.625 89.7726 85.6914 90.8859 86.6955L92.4361 84.9768C91.4006 84.0428 90.4422 83.051 89.5607 82.0101L87.7944 83.5059ZM94.3722 89.4428C95.5714 90.2656 96.843 91.0248 98.1868 91.7128L99.2416 89.6526C97.9856 89.0095 96.799 88.3009 95.6817 87.5343L94.3722 89.4428ZM102.239 93.4846C102.926 93.7375 103.629 93.9734 104.347 94.1916L105.02 91.9772C104.344 91.7717 103.684 91.5498 103.038 91.3124L102.239 93.4846ZM104.347 94.1916L105.232 94.4608L105.905 92.2464L105.02 91.9772L104.347 94.1916ZM107.003 94.9993L107.888 95.2685L108.562 93.054L107.676 92.7848L107.003 94.9993Z" fill="#3C41E1"/>
<path d="M125.23 26.5965C124.666 26.8974 124.453 27.5985 124.754 28.1624L129.658 37.3512C129.959 37.9151 130.66 38.1283 131.224 37.8274C131.788 37.5264 132.001 36.8254 131.7 36.2615L127.341 28.0936L135.509 23.7346C136.073 23.4337 136.286 22.7326 135.985 22.1687C135.684 21.6048 134.983 21.3917 134.419 21.6926L125.23 26.5965ZM129.515 92.9988L129.172 91.8937L129.515 92.9988ZM129.317 28.6943L129.653 27.5871L129.317 28.6943ZM127.053 94.9758C127.664 94.7861 128.005 94.1375 127.815 93.5272C127.625 92.9168 126.977 92.5758 126.367 92.7655L127.053 94.9758ZM128.237 92.1843C127.626 92.374 127.285 93.0226 127.475 93.6329C127.665 94.2432 128.313 94.5842 128.924 94.3945L128.237 92.1843ZM131.962 93.3839C132.56 93.1595 132.864 92.4925 132.639 91.894C132.415 91.2955 131.748 90.9923 131.149 91.2166L131.962 93.3839ZM134.936 89.5334C134.368 89.8282 134.148 90.5269 134.442 91.0941C134.737 91.6612 135.436 91.8819 136.003 91.5871L134.936 89.5334ZM139.804 89.2936C140.328 88.9287 140.458 88.2075 140.093 87.6827C139.728 87.158 139.007 87.0283 138.482 87.3932L139.804 89.2936ZM141.712 84.8158C141.24 85.2468 141.207 85.9788 141.638 86.4507C142.069 86.9227 142.801 86.9559 143.273 86.5248L141.712 84.8158ZM146.345 83.3162C146.755 82.8259 146.69 82.096 146.199 81.686C145.709 81.276 144.979 81.3411 144.569 81.8314L146.345 83.3162ZM147.004 78.4897C146.662 79.0302 146.824 79.7449 147.364 80.086C147.905 80.4272 148.62 80.2657 148.961 79.7252L147.004 78.4897ZM151.079 75.8251C151.346 75.2447 151.093 74.5572 150.513 74.2894C149.932 74.0216 149.245 74.2749 148.977 74.8552L151.079 75.8251ZM150.468 70.9919C150.276 71.6016 150.615 72.2514 151.225 72.4432C151.834 72.635 152.484 72.2963 152.676 71.6866L150.468 70.9919ZM153.74 67.3836C153.854 66.7548 153.437 66.1521 152.809 66.0375C152.18 65.9229 151.577 66.3397 151.463 66.9685L153.74 67.3836ZM151.955 62.851C151.918 63.489 152.405 64.0362 153.043 64.0732C153.681 64.1101 154.228 63.6228 154.265 62.9847L151.955 62.851ZM154.252 58.5551C154.211 57.9173 153.661 57.4333 153.023 57.4742C152.385 57.515 151.901 58.0652 151.942 58.7031L154.252 58.5551ZM151.424 54.5886C151.543 55.2167 152.148 55.6298 152.776 55.5113C153.404 55.3928 153.817 54.7876 153.699 54.1595L151.424 54.5886ZM152.609 49.8631C152.413 49.2547 151.761 48.9199 151.153 49.1155C150.544 49.3111 150.209 49.963 150.405 50.5714L152.609 49.8631ZM148.89 46.7174C149.162 47.2961 149.851 47.5452 150.429 47.2738C151.008 47.0024 151.257 46.3133 150.986 45.7346L148.89 46.7174ZM148.844 41.8477C148.499 41.3093 147.784 41.1522 147.245 41.4967C146.707 41.8412 146.55 42.5569 146.894 43.0952L148.844 41.8477ZM144.439 39.7686C144.852 40.2564 145.583 40.317 146.07 39.9039C146.558 39.4909 146.619 38.7606 146.206 38.2729L144.439 39.7686ZM143.114 35.0832C142.64 34.6551 141.908 34.6929 141.48 35.1675C141.052 35.6421 141.089 36.3738 141.564 36.8019L143.114 35.0832ZM138.318 34.2445C138.845 34.6061 139.566 34.472 139.927 33.945C140.289 33.418 140.155 32.6976 139.628 32.336L138.318 34.2445ZM135.813 30.0659C135.244 29.7747 134.547 29.9997 134.256 30.5686C133.964 31.1375 134.189 31.8349 134.758 32.1262L135.813 30.0659ZM130.962 30.4664C131.562 30.687 132.227 30.3797 132.447 29.7798C132.668 29.18 132.361 28.5148 131.761 28.2941L130.962 30.4664ZM128.768 27.3179C128.156 27.132 127.51 27.477 127.324 28.0885C127.138 28.7 127.483 29.3464 128.095 29.5324L128.768 27.3179ZM126.324 28.9939C126.935 29.1799 127.582 28.8349 127.768 28.2234C127.954 27.6119 127.609 26.9654 126.997 26.7795L126.324 28.9939ZM126.118 95.2664L127.053 94.9758L126.367 92.7655L125.431 93.0561L126.118 95.2664ZM128.924 94.3945L129.859 94.1039L129.172 91.8937L128.237 92.1843L128.924 94.3945ZM129.859 94.1039C130.575 93.8812 131.276 93.641 131.962 93.3839L131.149 91.2166C130.505 91.4581 129.846 91.684 129.172 91.8937L129.859 94.1039ZM136.003 91.5871C137.343 90.8908 138.609 90.1238 139.804 89.2936L138.482 87.3932C137.37 88.1667 136.188 88.8826 134.936 89.5334L136.003 91.5871ZM143.273 86.5248C144.38 85.5139 145.404 84.4412 146.345 83.3162L144.569 81.8314C143.694 82.8777 142.742 83.8753 141.712 84.8158L143.273 86.5248ZM148.961 79.7252C149.755 78.4668 150.461 77.1634 151.079 75.8251L148.977 74.8552C148.401 76.1034 147.743 77.318 147.004 78.4897L148.961 79.7252ZM152.676 71.6866C153.12 70.2741 153.475 68.8363 153.74 67.3836L151.463 66.9685C151.215 68.3277 150.883 69.6721 150.468 70.9919L152.676 71.6866ZM154.265 62.9847C154.351 61.5096 154.346 60.0296 154.252 58.5551L151.942 58.7031C152.03 60.0838 152.035 61.4697 151.955 62.851L154.265 62.9847ZM153.699 54.1595C153.425 52.7085 153.062 51.2729 152.609 49.8631L150.405 50.5714C150.828 51.8887 151.168 53.231 151.424 54.5886L153.699 54.1595ZM150.986 45.7346C150.36 44.4002 149.646 43.1011 148.844 41.8477L146.894 43.0952C147.641 44.2623 148.307 45.4728 148.89 46.7174L150.986 45.7346ZM146.206 38.2729C145.258 37.1537 144.227 36.0874 143.114 35.0832L141.564 36.8019C142.599 37.736 143.558 38.7277 144.439 39.7686L146.206 38.2729ZM139.628 32.336C138.429 31.5131 137.157 30.754 135.813 30.0659L134.758 32.1262C136.014 32.7693 137.201 33.4778 138.318 34.2445L139.628 32.336ZM131.761 28.2941C131.074 28.0413 130.371 27.8054 129.653 27.5871L128.98 29.8016C129.656 30.0071 130.316 30.2289 130.962 30.4664L131.761 28.2941ZM129.653 27.5871L128.768 27.3179L128.095 29.5324L128.98 29.8016L129.653 27.5871ZM126.997 26.7795L126.112 26.5103L125.438 28.7247L126.324 28.9939L126.997 26.7795Z" fill="#EA635E"/>
<path d="M116.886 78.5379C126.473 78.5379 134.245 70.766 134.245 61.1787C134.245 51.5915 126.473 43.8195 116.886 43.8195C107.298 43.8195 99.5263 51.5915 99.5263 61.1787C99.5263 70.766 107.298 78.5379 116.886 78.5379Z" stroke="#3C41E1" stroke-width="2.19375"/>
<path d="M124.601 61.1786C124.601 49.6058 116.886 43.8194 116.886 43.8194C116.886 43.8194 109.17 49.6058 109.17 61.1786C109.17 72.7515 116.886 78.5379 116.886 78.5379C116.886 78.5379 124.601 72.7515 124.601 61.1786Z" stroke="#3C41E1" stroke-width="2.19375" stroke-linejoin="round"/>
<path d="M134.245 61.1786H99.5263" stroke="#3C41E1" stroke-width="2.19375"/>
</svg>
