<svg width="348" height="295" viewBox="0 0 348 295" fill="none" xmlns="http://www.w3.org/2000/svg">
<path d="M47.0281 293.211C46.8684 294.024 47.3979 294.812 48.2108 294.972C49.0237 295.132 49.8122 294.602 49.9719 293.789L47.0281 293.211ZM346.228 95.9826C347.047 95.8566 347.609 95.0907 347.483 94.2719L345.43 80.9289C345.304 80.1101 344.538 79.5485 343.719 79.6744C342.9 79.8004 342.339 80.5663 342.465 81.3851L344.289 93.2455L332.429 95.0702C331.61 95.1962 331.048 95.9621 331.174 96.7809C331.3 97.5997 332.066 98.1613 332.885 98.0353L346.228 95.9826ZM284.598 38.1955L283.256 38.8663L284.598 38.1955ZM204.043 21.817L204.802 23.1109L204.043 21.817ZM229.464 6.90831L230.223 8.20221L229.464 6.90831ZM275.831 20.6626L277.173 19.9918L275.831 20.6626ZM112.737 25.7615L112.385 27.2195L112.737 25.7615ZM86.2912 19.3704L85.9389 20.8284L86.2912 19.3704ZM60.132 153.22L60.3545 151.736L60.132 153.22ZM137.567 164.835L137.79 163.352L137.567 164.835ZM303.024 67.6845L303.21 69.173L303.024 67.6845ZM312.95 70.2637L313.838 69.0541L312.95 70.2637ZM84.3365 111.096L85.8083 111.386L84.3365 111.096ZM49.9719 293.789L50.5691 290.749L47.6254 290.171L47.0281 293.211L49.9719 293.789ZM51.7637 284.669L52.9582 278.589L50.0145 278.011L48.82 284.091L51.7637 284.669ZM54.1528 272.509L55.3473 266.429L52.4036 265.85L51.2091 271.93L54.1528 272.509ZM56.5419 260.349L57.7364 254.268L54.7927 253.69L53.5982 259.77L56.5419 260.349ZM58.931 248.188L60.1255 242.108L57.1818 241.53L55.9873 247.61L58.931 248.188ZM61.3201 236.028L62.5146 229.948L59.5709 229.37L58.3764 235.45L61.3201 236.028ZM63.7092 223.868L64.9037 217.788L61.96 217.209L60.7655 223.289L63.7092 223.868ZM66.0983 211.708L67.2928 205.627L64.3491 205.049L63.1546 211.129L66.0983 211.708ZM68.4874 199.547L69.6819 193.467L66.7382 192.889L65.5437 198.969L68.4874 199.547ZM70.8765 187.387L72.071 181.307L69.1273 180.729L67.9328 186.809L70.8765 187.387ZM73.2656 175.227L74.4601 169.147L71.5164 168.568L70.3219 174.648L73.2656 175.227ZM75.6547 163.067L76.8492 156.986L73.9055 156.408L72.711 162.488L75.6547 163.067ZM78.0438 150.906L79.2383 144.826L76.2946 144.248L75.1 150.328L78.0438 150.906ZM80.4329 138.746L81.6274 132.666L78.6837 132.088L77.4891 138.168L80.4329 138.746ZM82.822 126.586L84.0165 120.506L81.0728 119.927L79.8782 126.007L82.822 126.586ZM85.2111 114.426L85.8083 111.386L82.8646 110.807L82.2673 113.847L85.2111 114.426ZM85.8083 111.386C86.0055 110.382 86.23 109.39 86.4811 108.41L83.5751 107.666C83.3098 108.701 83.0727 109.748 82.8646 110.807L85.8083 111.386ZM88.3286 102.606C89.0599 100.695 89.8964 98.8416 90.8304 97.0511L88.1706 95.6636C87.1835 97.5557 86.2996 99.5146 85.5268 101.534L88.3286 102.606ZM93.9538 91.8216C95.0977 90.1349 96.3348 88.5203 97.6571 86.9843L95.3835 85.0271C93.9867 86.6497 92.6797 88.3556 91.471 90.1376L93.9538 91.8216ZM101.89 82.6017C103.383 81.2229 104.954 79.9304 106.595 78.7309L104.825 76.309C103.092 77.576 101.432 78.9412 99.8548 80.3976L101.89 82.6017ZM111.712 75.4224C113.474 74.421 115.297 73.5184 117.172 72.7211L115.998 69.9602C114.017 70.8026 112.091 71.7563 110.229 72.8141L111.712 75.4224ZM122.906 70.6644C124.843 70.0931 126.823 69.6297 128.839 69.2804L128.326 66.3245C126.196 66.6935 124.104 67.1833 122.057 67.787L122.906 70.6644ZM134.89 68.5866C135.9 68.5291 136.917 68.5 137.939 68.5V65.5C136.86 65.5 135.786 65.5307 134.72 65.5915L134.89 68.5866ZM137.939 68.5H139.67V65.5H137.939V68.5ZM143.133 68.5H144.864V65.5H143.133V68.5ZM144.864 68.5C145.902 68.5 146.931 68.5326 147.95 68.5968L148.139 65.6028C147.057 65.5346 145.965 65.5 144.864 65.5V68.5ZM154.067 69.3779C156.108 69.7738 158.096 70.2988 160.026 70.9432L160.976 68.0976C158.923 67.4121 156.808 66.8538 154.638 66.4328L154.067 69.3779ZM165.728 73.2726C167.586 74.1775 169.372 75.199 171.08 76.3265L172.733 73.8231C170.918 72.6244 169.018 71.5381 167.042 70.5756L165.728 73.2726ZM175.993 80.0487C177.551 81.3956 179.019 82.8402 180.389 84.3714L182.625 82.3715C181.17 80.745 179.61 79.2104 177.955 77.7792L175.993 80.0487ZM184.197 89.2205C185.36 90.9139 186.415 92.6826 187.354 94.5155L190.024 93.1475C189.026 91.1999 187.905 89.3209 186.67 87.5222L184.197 89.2205ZM189.805 100.171C190.496 102.097 191.065 104.075 191.504 106.094L194.435 105.457C193.969 103.309 193.364 101.206 192.629 99.1586L189.805 100.171ZM192.415 112.186C192.583 114.213 192.622 116.27 192.523 118.346L195.519 118.49C195.625 116.282 195.584 114.094 195.405 111.937L192.415 112.186ZM191.832 124.474C191.652 125.479 191.44 126.486 191.194 127.495L194.109 128.206C194.37 127.136 194.595 126.067 194.785 125.001L191.832 124.474ZM191.194 127.495C190.96 128.455 190.698 129.401 190.409 130.333L193.275 131.221C193.582 130.231 193.86 129.225 194.109 128.206L191.194 127.495ZM188.328 135.831C187.516 137.633 186.598 139.368 185.584 141.031L188.145 142.593C189.223 140.825 190.199 138.98 191.063 137.064L188.328 135.831ZM182.218 145.85C180.993 147.39 179.678 148.848 178.282 150.217L180.382 152.359C181.866 150.904 183.264 149.354 184.566 147.717L182.218 145.85ZM173.838 154.069C172.279 155.26 170.649 156.355 168.956 157.347L170.472 159.935C172.271 158.882 174.004 157.718 175.66 156.452L173.838 154.069ZM163.709 160.002C161.913 160.776 160.066 161.441 158.176 161.991L159.015 164.872C161.024 164.287 162.987 163.579 164.896 162.757L163.709 160.002ZM152.442 163.283C150.519 163.592 148.566 163.785 146.59 163.855L146.696 166.853C148.797 166.778 150.874 166.574 152.918 166.245L152.442 163.283ZM140.713 163.7C139.742 163.614 138.767 163.498 137.79 163.352L137.345 166.318C138.382 166.474 139.418 166.597 140.45 166.688L140.713 163.7ZM137.79 163.352L135.024 162.937L134.579 165.904L137.345 166.318L137.79 163.352ZM129.493 162.107L123.962 161.277L123.517 164.244L129.048 165.074L129.493 162.107ZM118.431 160.448L112.9 159.618L112.455 162.585L117.986 163.415L118.431 160.448ZM107.369 158.789L101.838 157.959L101.393 160.926L106.924 161.755L107.369 158.789ZM96.3065 157.129L90.7754 156.3L90.3304 159.266L95.8615 160.096L96.3065 157.129ZM85.2443 155.47L79.7133 154.64L79.2682 157.607L84.7993 158.437L85.2443 155.47ZM74.1822 153.811L68.6511 152.981L68.2061 155.948L73.7372 156.777L74.1822 153.811ZM63.12 152.151L60.3545 151.736L59.9095 154.703L62.675 155.118L63.12 152.151ZM60.3545 151.736C59.3718 151.589 58.3969 151.421 57.4301 151.232L56.8552 154.176C57.865 154.373 58.8833 154.549 59.9095 154.703L60.3545 151.736ZM51.664 149.839C49.7522 149.286 47.8782 148.651 46.0457 147.939L44.9591 150.736C46.8744 151.48 48.8329 152.143 50.8308 152.721L51.664 149.839ZM40.6195 145.547C38.841 144.666 37.1093 143.708 35.4283 142.68L33.8623 145.238C35.619 146.313 37.4289 147.314 39.2878 148.235L40.6195 145.547ZM30.5127 139.361C28.9215 138.181 27.3862 136.932 25.9106 135.62L23.9167 137.861C25.4584 139.233 27.0627 140.538 28.7253 141.771L30.5127 139.361ZM21.6577 131.485C20.3018 130.045 19.0102 128.545 17.787 126.99L15.4294 128.846C16.7074 130.47 18.0568 132.037 19.4733 133.541L21.6577 131.485ZM14.3289 122.171C13.2497 120.517 12.2425 118.814 11.3113 117.065L8.66339 118.475C9.63648 120.302 10.6889 122.083 11.8164 123.811L14.3289 122.171ZM8.75912 111.712C7.99106 109.897 7.30132 108.042 6.69379 106.152L3.83777 107.071C4.47276 109.046 5.19363 110.984 5.99632 112.881L8.75912 111.712ZM5.13255 100.431C4.70019 98.5136 4.35063 96.5662 4.08759 94.5935L1.11391 94.99C1.38879 97.0515 1.7541 99.0867 2.206 101.091L5.13255 100.431ZM3.56513 88.6846C3.52185 87.7005 3.5 86.7114 3.5 85.7177H0.5C0.5 86.7554 0.522822 87.7884 0.568027 88.8164L3.56513 88.6846ZM3.5 85.7177C3.5 84.7028 3.52229 83.6942 3.56634 82.6925L0.569238 82.5607C0.52325 83.6064 0.5 84.6588 0.5 85.7177H3.5ZM4.09932 76.6807C4.36895 74.6685 4.72736 72.6886 5.17005 70.7443L2.24491 70.0783C1.78215 72.1107 1.40761 74.18 1.1259 76.2823L4.09932 76.6807ZM6.77696 64.9286C7.4042 63.0059 8.11595 61.1247 8.90739 59.2885L6.15241 58.101C5.32492 60.0208 4.58073 61.9879 3.9249 63.9981L6.77696 64.9286ZM11.5472 53.8616C12.512 52.0889 13.5544 50.3669 14.6693 48.6996L12.1755 47.0321C11.0103 48.7745 9.92079 50.5744 8.91221 52.4274L11.5472 53.8616ZM18.2467 43.8407C19.5136 42.2733 20.8491 40.7658 22.248 39.3224L20.0936 37.2346C18.6324 38.7424 17.2373 40.3172 15.9136 41.9548L18.2467 43.8407ZM26.6379 35.1807C28.1623 33.8663 29.745 32.6205 31.3808 31.4475L29.6325 29.0096C27.9241 30.2347 26.271 31.5359 24.6789 32.9087L26.6379 35.1807ZM36.4377 28.1533C38.1694 27.1327 39.9485 26.1887 41.7696 25.3254L40.4845 22.6145C38.5818 23.5165 36.7233 24.5027 34.9145 25.5688L36.4377 28.1533ZM47.3329 22.9895C49.2154 22.2974 51.1341 21.6887 53.0838 21.1673L52.3088 18.2691C50.2706 18.8142 48.2652 19.4505 46.2978 20.1737L47.3329 22.9895ZM58.979 19.8761C60.9497 19.5382 62.9455 19.2883 64.9617 19.1302L64.7272 16.1394C62.6192 16.3046 60.5324 16.566 58.4719 16.9193L58.979 19.8761ZM70.9922 18.9344C72.986 18.9608 74.9948 19.0775 77.014 19.2881L77.3252 16.3043C75.2155 16.0843 73.1162 15.9623 71.0319 15.9347L70.9922 18.9344ZM82.9828 20.1823C83.9668 20.3748 84.9523 20.59 85.9389 20.8284L86.6436 17.9124C85.6144 17.6636 84.5859 17.439 83.5587 17.2381L82.9828 20.1823ZM85.9389 20.8284L89.2446 21.6273L89.9493 18.7112L86.6436 17.9124L85.9389 20.8284ZM95.8561 23.2251L102.468 24.8228L103.172 21.9068L96.5608 20.309L95.8561 23.2251ZM109.079 26.4206L112.385 27.2195L113.089 24.3034L109.784 23.5046L109.079 26.4206ZM112.385 27.2195C113.168 27.4087 113.953 27.5863 114.741 27.7521L115.359 24.8164C114.6 24.6567 113.844 24.4857 113.089 24.3034L112.385 27.2195ZM119.495 28.6066C121.088 28.8444 122.688 29.035 124.292 29.178L124.558 26.1899C123.013 26.0521 121.473 25.8686 119.938 25.6395L119.495 28.6066ZM129.114 29.4642C129.919 29.4881 130.724 29.5 131.53 29.5V26.5C130.754 26.5 129.978 26.4885 129.203 26.4655L129.114 29.4642ZM131.53 29.5H134.639V26.5H131.53V29.5ZM140.857 29.5H147.076V26.5H140.857V29.5ZM153.294 29.5H159.513V26.5H153.294V29.5ZM165.732 29.5H171.95V26.5H165.732V29.5ZM178.169 29.5H181.278V26.5H178.169V29.5ZM181.278 29.5C182.308 29.5 183.335 29.4658 184.359 29.3978L184.16 26.4044C183.202 26.468 182.241 26.5 181.278 26.5V29.5ZM190.466 28.5832C192.482 28.1769 194.468 27.6374 196.412 26.9682L195.436 24.1316C193.617 24.7576 191.759 25.2623 189.873 25.6424L190.466 28.5832ZM202.092 24.5813C203.01 24.1221 203.913 23.6319 204.802 23.1109L203.284 20.5231C202.453 21.0105 201.608 21.4691 200.75 21.8986L202.092 24.5813ZM204.802 23.1109L207.979 21.2473L206.462 18.6595L203.284 20.5231L204.802 23.1109ZM214.335 17.5202L220.69 13.793L219.172 11.2052L212.817 14.9324L214.335 17.5202ZM227.045 10.0658L230.223 8.20221L228.705 5.61441L225.528 7.478L227.045 10.0658ZM230.223 8.20221C230.976 7.76062 231.739 7.35398 232.51 6.98167L231.206 4.28003C230.362 4.68737 229.528 5.13199 228.705 5.61441L230.223 8.20221ZM237.334 5.12163C239.006 4.63046 240.699 4.28455 242.397 4.07895L242.036 1.10071C240.176 1.32599 238.321 1.70505 236.489 2.24327L237.334 5.12163ZM247.563 3.88144C249.293 3.95738 251.009 4.17506 252.695 4.52926L253.312 1.59334C251.467 1.20577 249.588 0.967476 247.695 0.884329L247.563 3.88144ZM257.655 6.00051C259.262 6.62301 260.819 7.37661 262.31 8.25593L263.834 5.67185C262.202 4.70912 260.497 3.88434 258.739 3.20318L257.655 6.00051ZM266.533 11.2388C267.844 12.3368 269.075 13.55 270.208 14.8733L272.487 12.9217C271.245 11.4715 269.896 10.1421 268.46 8.93905L266.533 11.2388ZM273.238 19.0632C273.681 19.7958 274.099 20.5527 274.49 21.3335L277.173 19.9918C276.747 19.1389 276.29 18.3113 275.805 17.5098L273.238 19.0632ZM274.49 21.3335L275.585 23.5251L278.269 22.1834L277.173 19.9918L274.49 21.3335ZM277.777 27.9083L279.969 32.2915L282.652 30.9499L280.46 26.5666L277.777 27.9083ZM282.16 36.6747L283.256 38.8663L285.939 37.5247L284.844 35.3331L282.16 36.6747ZM283.256 38.8663C283.729 39.8117 284.014 40.8051 284.124 41.803L287.106 41.475C286.958 40.1299 286.573 38.7926 285.939 37.5247L283.256 38.8663ZM282.666 47.6546C282.102 48.4845 281.384 49.2283 280.523 49.8417L282.264 52.2849C283.419 51.4623 284.385 50.4614 285.146 49.3427L282.666 47.6546ZM280.523 49.8417C279.416 50.6302 278.5 51.5369 277.77 52.5276L280.184 54.3083C280.721 53.5803 281.407 52.8952 282.264 52.2849L280.523 49.8417ZM275.597 59.8597C275.734 62.4378 276.713 64.9472 278.356 66.9382L280.67 65.0284C279.435 63.5326 278.696 61.6366 278.592 59.6998L275.597 59.8597ZM284.918 70.8651C286.127 71.0999 287.415 71.1473 288.763 70.9788L288.391 68.0019C287.347 68.1324 286.378 68.0927 285.49 67.9202L284.918 70.8651ZM288.763 70.9788L292.375 70.5273L292.003 67.5505L288.391 68.0019L288.763 70.9788ZM299.598 69.6244L303.21 69.173L302.838 66.1961L299.226 66.6476L299.598 69.6244ZM303.21 69.173C303.991 69.0754 304.773 69.053 305.548 69.1034L305.742 66.1097C304.78 66.0472 303.808 66.0749 302.838 66.1961L303.21 69.173ZM310.055 70.2745C310.756 70.6075 311.429 71.008 312.063 71.4733L313.838 69.0541C313.049 68.476 312.213 67.9785 311.342 67.5647L310.055 70.2745ZM312.063 71.4733L314.818 73.493L316.592 71.0738L313.838 69.0541L312.063 71.4733ZM320.326 77.5324L325.834 81.5718L327.608 79.1525L322.1 75.1132L320.326 77.5324ZM331.342 85.6111L336.851 89.6505L338.625 87.2313L333.116 83.1919L331.342 85.6111ZM342.359 93.6899L345.113 95.7096L346.887 93.2904L344.133 91.2707L342.359 93.6899Z" fill="#1283fe"/>
</svg>
