<svg width="169" height="61" viewBox="0 0 169 61" fill="none" xmlns="http://www.w3.org/2000/svg">
<path d="M1 1L1.1974 3.50662C1.85955 11.9145 4.34633 20.0769 8.48461 27.4257V27.4257C13.8458 36.9463 22.1755 44.4508 32.2017 48.7934L36.083 50.4745C51.579 57.1862 69.1701 57.1411 84.6315 50.3501L87.3778 49.1438C97.7802 44.5748 106.393 36.7149 111.893 26.7729V26.7729C115.502 20.248 117.866 13.1084 118.863 5.71868L119.5 1" stroke="#EA635E" stroke-width="2"/>
<path d="M68 1L68.2176 2.24938C69.4032 9.05702 72.151 15.4971 76.2452 21.0637V21.0637C79.1331 24.9902 82.6939 28.3739 86.7624 31.0579L89.0721 32.5816C90.5029 33.5255 92.0112 34.3464 93.5807 35.0354L99.1362 37.4744C101.449 38.4895 103.845 39.3011 106.298 39.8999L107.305 40.1455C115.002 42.0241 123.024 42.1352 130.77 40.4704V40.4704C135.296 39.4975 139.62 37.7461 143.547 35.2942L147.222 33L150.535 30.4802C153.573 28.1699 156.296 25.4734 158.637 22.4588V22.4588C163.457 16.2498 166.663 8.94292 167.968 1.19169L168 1" stroke="#1283FE" stroke-width="2"/>
</svg>
