<svg width="55" height="67" viewBox="0 0 55 67" fill="none" xmlns="http://www.w3.org/2000/svg">
<path d="M29.371 6.97919H9.55353C6.37358 6.97919 3.79572 9.55705 3.79572 12.737V12.737C3.79572 15.917 6.37358 18.4948 9.55353 18.4948H47.4099C50.9753 18.4948 53.8656 21.3851 53.8656 24.9505V24.9505C53.8656 28.5159 50.9753 31.4063 47.4099 31.4063H10.6004C6.84227 31.4063 3.79572 34.4528 3.79572 38.211V38.211C3.79572 41.9691 6.84228 45.0156 10.6004 45.0156H47.7588C51.1315 45.0156 53.8656 47.7497 53.8656 51.1224V51.1224C53.8656 54.4951 51.1315 57.2292 47.7588 57.2292H16.4032" stroke="#3C41E1" stroke-width="2" stroke-dasharray="4.5 4.5"/>
<path d="M8.83872 58.8576C10.0324 58.8576 11 57.764 11 56.4149C11 55.0659 10.0324 53.9722 8.83872 53.9722C7.64504 53.9722 6.67743 55.0659 6.67743 56.4149C6.67743 57.764 7.64504 58.8576 8.83872 58.8576Z" stroke="#EA635E" stroke-width="1.08065" stroke-linecap="round" stroke-linejoin="round"/>
<path d="M8.8387 64.5572C12.0218 62.9288 14.6021 60.0124 14.6021 56.4149C14.6021 52.8174 12.0218 49.901 8.8387 49.901C5.65564 49.901 3.07526 52.8174 3.07526 56.4149C3.07526 60.0124 5.65564 62.9288 8.8387 64.5572Z" stroke="#EA635E" stroke-width="1.08065" stroke-linecap="round" stroke-linejoin="round"/>
<path d="M33.3333 8.14235C34.2286 8.14235 34.9543 7.36121 34.9543 6.39756C34.9543 5.43394 34.2286 4.65277 33.3333 4.65277C32.438 4.65277 31.7123 5.43394 31.7123 6.39756C31.7123 7.36121 32.438 8.14235 33.3333 8.14235Z" stroke="#EA635E" stroke-width="1.08065" stroke-linecap="round" stroke-linejoin="round"/>
<path d="M33.3334 12.2135C35.7207 11.0503 37.6559 8.9672 37.6559 6.39753C37.6559 3.82787 35.7207 1.74475 33.3334 1.74475C30.9461 1.74475 29.0108 3.82787 29.0108 6.39753C29.0108 8.9672 30.9461 11.0503 33.3334 12.2135Z" stroke="#EA635E" stroke-width="1.08065" stroke-linecap="round" stroke-linejoin="round"/>
<path d="M41.2581 25.125V37.6875" stroke="#EA635E" stroke-width="1.08065" stroke-linecap="round" stroke-linejoin="round"/>
<path d="M34.7742 31.4062H47.7419" stroke="#EA635E" stroke-width="1.08065" stroke-linecap="round" stroke-linejoin="round"/>
<path d="M46.3011 31.4063C46.3011 34.1044 44.0433 36.2917 41.2581 36.2917C38.4729 36.2917 36.2151 34.1044 36.2151 31.4063C36.2151 28.7082 38.4729 26.5209 41.2581 26.5209C44.0433 26.5209 46.3011 28.7082 46.3011 31.4063Z" stroke="#EA635E" stroke-width="1.08065" stroke-linecap="round" stroke-linejoin="round"/>
</svg>
