<svg width="485" height="284" viewBox="0 0 485 284" fill="none" xmlns="http://www.w3.org/2000/svg">
<path d="M77.7005 56.7032H436.834L77.7005 77.3188H484L2.23529 102.392L484 116.321L2.23529 132.479L436.834 148.638L144.96 169.297C141.005 169.577 140.799 175.31 144.724 175.872L423.325 215.792C426.76 216.284 428.54 211.831 425.712 209.82L148.27 12.5787C145.572 10.6611 142.042 13.4535 143.287 16.5198L231.327 233.365C232.253 235.649 230.449 238.107 227.993 237.908L24.6527 221.361C20.5686 221.029 20.6135 215.034 24.7021 214.762L467.155 185.411L300.62 217.618C300.245 217.691 299.861 217.698 299.484 217.639L2.23529 171.482L438.181 249.328C442.063 250.021 441.694 255.704 437.755 255.89L77.7005 272.888" stroke="#ffffff" stroke-width="22.0569"/>
</svg>
